<svg width="559" height="177" viewBox="0 0 559 176" fill="none" xmlns="http://www.w3.org/2000/svg"><g opacity=".4"><mask id="path-1-outside-1_48_1753" maskUnits="userSpaceOnUse" x="-2" y="-1" width="562" height="176" fill="#000"><path fill="#fff" d="M-2-1h562v176H-2z"/><path d="M122.24 171H3.68v-32.88l51.6-44.16c4.64-4 8.56-7.6 11.76-10.8 3.2-3.36 5.76-6.56 7.68-9.6 2.08-3.2 3.52-6.32 4.32-9.36.96-3.04 1.44-6.32 1.44-9.84V51c0-3.2-.64-6-1.92-8.4-1.28-2.4-2.96-4.4-5.04-6-2.08-1.6-4.48-2.8-7.2-3.6-2.56-.8-5.2-1.2-7.92-1.2-4 0-7.52.64-10.56 1.92A25.313 25.313 0 0040.16 39c-2.08 2.08-3.84 4.56-5.28 7.44-1.44 2.72-2.56 5.68-3.36 8.88l-31.44-12C2 37.56 4.64 32.12 8 27c3.36-5.28 7.52-9.84 12.48-13.68 5.12-4 11.12-7.12 18-9.36C45.36 1.72 53.12.6 61.76.6 70.88.6 78.96 1.88 86 4.44 93.04 7 98.96 10.52 103.76 15c4.96 4.48 8.72 9.84 11.28 16.08 2.56 6.08 3.84 12.72 3.84 19.92 0 7.2-1.2 13.76-3.6 19.68-2.4 5.92-5.68 11.52-9.84 16.8-4 5.12-8.72 10-14.16 14.64-5.44 4.64-11.12 9.36-17.04 14.16l-31.2 24.48h79.2V171zm83.666 2.88c-21.92 0-38.16-7.6-48.72-22.8-10.56-15.2-15.84-36.48-15.84-63.84 0-27.36 5.28-48.64 15.84-63.84 10.56-15.2 26.8-22.8 48.72-22.8 21.92 0 38.16 7.6 48.72 22.8 10.56 15.2 15.84 36.48 15.84 63.84 0 27.36-5.28 48.64-15.84 63.84-10.56 15.2-26.8 22.8-48.72 22.8zm0-30.48c9.6 0 16.24-3.52 19.92-10.56 3.68-7.04 5.52-16.96 5.52-29.76V71.4c0-12.8-1.84-22.72-5.52-29.76-3.68-7.04-10.32-10.56-19.92-10.56-9.6 0-16.24 3.52-19.92 10.56-3.68 7.04-5.52 16.96-5.52 29.76v31.68c0 12.8 1.84 22.72 5.52 29.76 3.68 7.04 10.32 10.56 19.92 10.56zm143.907 30.48c-21.92 0-38.16-7.6-48.72-22.8-10.56-15.2-15.84-36.48-15.84-63.84 0-27.36 5.28-48.64 15.84-63.84 10.56-15.2 26.8-22.8 48.72-22.8 21.92 0 38.16 7.6 48.72 22.8 10.56 15.2 15.84 36.48 15.84 63.84 0 27.36-5.28 48.64-15.84 63.84-10.56 15.2-26.8 22.8-48.72 22.8zm0-30.48c9.6 0 16.24-3.52 19.92-10.56 3.68-7.04 5.52-16.96 5.52-29.76V71.4c0-12.8-1.84-22.72-5.52-29.76-3.68-7.04-10.32-10.56-19.92-10.56-9.6 0-16.24 3.52-19.92 10.56-3.68 7.04-5.52 16.96-5.52 29.76v31.68c0 12.8 1.84 22.72 5.52 29.76 3.68 7.04 10.32 10.56 19.92 10.56zm143.906 30.48c-21.92 0-38.16-7.6-48.72-22.8-10.56-15.2-15.84-36.48-15.84-63.84 0-27.36 5.28-48.64 15.84-63.84 10.56-15.2 26.8-22.8 48.72-22.8 21.92 0 38.16 7.6 48.72 22.8 10.56 15.2 15.84 36.48 15.84 63.84 0 27.36-5.28 48.64-15.84 63.84-10.56 15.2-26.8 22.8-48.72 22.8zm0-30.48c9.6 0 16.24-3.52 19.92-10.56 3.68-7.04 5.52-16.96 5.52-29.76V71.4c0-12.8-1.84-22.72-5.52-29.76-3.68-7.04-10.32-10.56-19.92-10.56-9.6 0-16.24 3.52-19.92 10.56-3.68 7.04-5.52 16.96-5.52 29.76v31.68c0 12.8 1.84 22.72 5.52 29.76 3.68 7.04 10.32 10.56 19.92 10.56z"/></mask><path d="M122.24 171v1h1v-1h-1zM3.68 171h-1v1h1v-1zm0-32.88l-.65-.76-.35.3v.46h1zm51.6-44.16l.65.76.003-.003-.653-.757zm11.76-10.8l.707.707.009-.008.008-.01-.724-.689zm7.68-9.6l-.838-.545-.008.011.846.534zm4.32-9.36l-.954-.301-.007.023-.006.024.967.254zm-5.52-27.6l-.61.793.61-.793zm-7.2-3.6l-.298.955.008.002.008.002.282-.959zm-18.48.72l-.388-.922-.01.004-.008.004.406.914zM40.16 39l-.707-.707.707.707zm-5.28 7.44l.884.468.005-.01.005-.01-.894-.448zm-3.36 8.88l-.357.934 1.054.402.273-1.093-.97-.243zm-31.44-12l-.949-.316-.303.909.895.341.357-.934zM8 27l.836.549.008-.012L8 27zm12.48-13.68l.612.79.004-.002-.616-.788zM86 4.44l-.342.94.342-.94zM103.76 15l-.682.731.006.006.006.005.67-.742zm11.28 16.08l-.925.38.003.008.922-.388zm-9.6 56.4l-.785-.619-.003.003.788.616zm-14.16 14.64l.649.761-.649-.761zm-17.04 14.16l.617.787.007-.005.006-.005-.63-.777zm-31.2 24.48l-.617-.787-2.278 1.787h2.895v-1zm79.2 0h1v-1h-1v1zm0 29.24H3.68v2h118.56v-2zM4.68 171v-32.88h-2V171h2zm-.35-32.12l51.6-44.16-1.3-1.52-51.6 44.16 1.3 1.52zm51.603-44.163c4.653-4.01 8.592-7.628 11.814-10.85l-1.414-1.414c-3.178 3.178-7.079 6.76-11.706 10.75l1.306 1.514zM67.764 83.85c3.233-3.395 5.838-6.647 7.802-9.756l-1.692-1.068c-1.876 2.97-4.391 6.12-7.558 9.444l1.448 1.38zm7.794-9.745c2.126-3.27 3.617-6.488 4.45-9.65l-1.935-.51c-.768 2.918-2.157 5.94-4.191 9.07l1.676 1.09zm4.436-9.604c.993-3.147 1.486-6.53 1.486-10.141h-2c0 3.428-.467 6.606-1.394 9.539l1.908.602zM81.48 54.36V51h-2v3.36h2zm0-3.36c0-3.335-.668-6.302-2.038-8.87l-1.764.94c1.19 2.232 1.802 4.865 1.802 7.93h2zm-2.038-8.87c-1.344-2.521-3.115-4.633-5.312-6.323l-1.22 1.586c1.963 1.51 3.552 3.398 4.768 5.678l1.764-.942zm-5.312-6.323c-2.186-1.68-4.699-2.934-7.528-3.766l-.564 1.918c2.61.768 4.898 1.915 6.872 3.434l1.22-1.586zm-7.512-3.762A27.398 27.398 0 0058.4 30.8v2c2.62 0 5.16.385 7.622 1.155l.596-1.91zM58.4 30.8c-4.106 0-7.762.657-10.948 1.998l.776 1.844C51.122 33.423 54.506 32.8 58.4 32.8v-2zm-10.966 2.006a26.313 26.313 0 00-7.981 5.487l1.414 1.414a24.314 24.314 0 017.38-5.073l-.813-1.828zm-7.981 5.487c-2.163 2.163-3.984 4.733-5.467 7.7l1.788.894c1.397-2.793 3.096-5.183 5.093-7.18l-1.414-1.414zm-5.457 7.68c-1.48 2.795-2.628 5.832-3.446 9.105l1.94.484c.782-3.127 1.874-6.01 3.274-8.654l-1.768-.936zm-2.12 8.413l-31.44-12-.713 1.868 31.44 12 .714-1.868zM1.03 43.636A68.945 68.945 0 018.836 27.55l-1.672-1.1A70.942 70.942 0 00-.869 43.004l1.898.632zm7.815-16.1a52.503 52.503 0 0112.248-13.425l-1.224-1.582A54.502 54.502 0 007.156 26.463l1.688 1.074zm12.252-13.428c5.018-3.92 10.912-6.99 17.694-9.197l-.62-1.902c-6.978 2.272-13.084 5.444-18.306 9.523l1.232 1.576zM38.79 4.911C45.552 2.709 53.205 1.6 61.76 1.6v-2C53.035-.4 45.168.731 38.17 3.01l.62 1.9zM61.76 1.6c9.028 0 16.989 1.267 23.898 3.78l.684-1.88C79.172.893 70.972-.4 61.76-.4v2zm23.898 3.78c6.932 2.52 12.73 5.975 17.42 10.351l1.364-1.462c-4.91-4.584-10.952-8.17-18.1-10.769l-.684 1.88zm17.432 10.362c4.848 4.379 8.521 9.615 11.025 15.718l1.85-.76c-2.616-6.377-6.463-11.86-11.535-16.442l-1.34 1.484zm11.028 15.726c2.504 5.946 3.762 12.453 3.762 19.532h2c0-7.321-1.302-14.094-3.918-20.308l-1.844.776zM117.88 51c0 7.087-1.181 13.518-3.527 19.304l1.854.752c2.454-6.054 3.673-12.743 3.673-20.056h-2zm-3.527 19.304c-2.363 5.828-5.594 11.347-9.698 16.557l1.571 1.238c4.215-5.35 7.544-11.032 9.981-17.043l-1.854-.752zm-9.701 16.56c-3.955 5.062-8.627 9.894-14.02 14.495l1.297 1.522c5.486-4.68 10.254-9.607 14.299-14.785l-1.576-1.232zm-14.02 14.495a889.983 889.983 0 01-17.022 14.144l1.26 1.554a891.175 891.175 0 0017.059-14.176l-1.298-1.522zm-17.01 14.134l-31.2 24.48 1.235 1.574 31.2-24.48-1.234-1.574zM43.04 141.76h79.2v-2h-79.2v2zm78.2-1V171h2v-30.24h-2zm35.946 10.32l.822-.571-.822.571zm0-127.68l.822.57-.822-.57zm97.44 0l-.821.57.821-.57zm0 127.68l.822.571-.822-.571zm-28.8-18.24l-.886-.463.886.463zm0-91.2l.886-.463-.886.463zm-39.84 0l-.886-.463.886.463zm0 91.2l.886-.463-.886.463zm19.92 40.04c-21.661 0-37.562-7.492-47.898-22.371l-1.643 1.142c10.783 15.521 27.363 23.229 49.541 23.229v-2zm-47.898-22.371c-10.401-14.969-15.662-36.021-15.662-63.269h-2c0 27.472 5.299 48.98 16.019 64.411l1.643-1.142zM142.346 87.24c0-27.248 5.261-48.3 15.662-63.27l-1.643-1.14c-10.72 15.43-16.019 36.939-16.019 64.41h2zm15.662-63.27C168.344 9.093 184.245 1.6 205.906 1.6v-2c-22.178 0-38.758 7.708-49.541 23.23l1.643 1.14zM205.906 1.6c21.662 0 37.562 7.492 47.899 22.37l1.643-1.14C244.664 7.307 228.085-.4 205.906-.4v2zm47.899 22.37c10.4 14.97 15.661 36.022 15.661 63.27h2c0-27.471-5.299-48.98-16.018-64.41l-1.643 1.14zm15.661 63.27c0 27.248-5.261 48.3-15.661 63.269l1.643 1.142c10.719-15.431 16.018-36.939 16.018-64.411h-2zm-15.661 63.269c-10.337 14.879-26.237 22.371-47.899 22.371v2c22.179 0 38.758-7.708 49.542-23.229l-1.643-1.142zm-47.899-6.109c9.879 0 16.915-3.652 20.806-11.097l-1.772-.926c-3.468 6.635-9.713 10.023-19.034 10.023v2zm20.806-11.097c3.787-7.244 5.634-17.35 5.634-30.223h-2c0 12.727-1.833 22.461-5.406 29.297l1.772.926zm5.634-30.223V71.4h-2v31.68h2zm0-31.68c0-12.873-1.847-22.979-5.634-30.223l-1.772.926c3.573 6.836 5.406 16.57 5.406 29.297h2zm-5.634-30.223c-3.891-7.445-10.927-11.097-20.806-11.097v2c9.321 0 15.566 3.388 19.034 10.023l1.772-.926zM205.906 30.08c-9.879 0-16.914 3.652-20.806 11.097l1.772.926c3.469-6.635 9.713-10.023 19.034-10.023v-2zM185.1 41.177c-3.787 7.244-5.634 17.35-5.634 30.223h2c0-12.727 1.833-22.461 5.406-29.297l-1.772-.926zM179.466 71.4v31.68h2V71.4h-2zm0 31.68c0 12.873 1.847 22.979 5.634 30.223l1.772-.926c-3.573-6.836-5.406-16.57-5.406-29.297h-2zm5.634 30.223c3.892 7.445 10.927 11.097 20.806 11.097v-2c-9.321 0-15.565-3.388-19.034-10.023l-1.772.926zm115.992 17.777l.822-.571-.822.571zm0-127.68l.822.57-.822-.57zm97.441 0l-.822.57.822-.57zm0 127.68l.821.571-.821-.571zm-28.8-18.24l-.887-.463.887.463zm0-91.2l.886-.463-.886.463zm-39.84 0l-.887-.463.887.463zm0 91.2l.886-.463-.886.463zm19.919 40.04c-21.661 0-37.561-7.492-47.898-22.371l-1.643 1.142c10.783 15.521 27.363 23.229 49.541 23.229v-2zm-47.898-22.371c-10.4-14.969-15.661-36.021-15.661-63.269h-2c0 27.472 5.298 48.98 16.018 64.411l1.643-1.142zM286.253 87.24c0-27.248 5.261-48.3 15.661-63.27l-1.643-1.14c-10.72 15.43-16.018 36.939-16.018 64.41h2zm15.661-63.27C312.251 9.093 328.151 1.6 349.812 1.6v-2c-22.178 0-38.758 7.708-49.541 23.23l1.643 1.14zM349.812 1.6c21.662 0 37.562 7.492 47.899 22.37l1.643-1.14C388.571 7.307 371.991-.4 349.812-.4v2zm47.899 22.37c10.4 14.97 15.661 36.022 15.661 63.27h2c0-27.471-5.298-48.98-16.018-64.41l-1.643 1.14zm15.661 63.27c0 27.248-5.261 48.3-15.661 63.269l1.643 1.142c10.72-15.431 16.018-36.939 16.018-64.411h-2zm-15.661 63.269c-10.337 14.879-26.237 22.371-47.899 22.371v2c22.179 0 38.759-7.708 49.542-23.229l-1.643-1.142zm-47.899-6.109c9.88 0 16.915-3.652 20.807-11.097l-1.773-.926c-3.468 6.635-9.713 10.023-19.034 10.023v2zm20.807-11.097c3.787-7.244 5.634-17.35 5.634-30.223h-2c0 12.727-1.834 22.461-5.407 29.297l1.773.926zm5.634-30.223V71.4h-2v31.68h2zm0-31.68c0-12.873-1.847-22.979-5.634-30.223l-1.773.926c3.573 6.836 5.407 16.57 5.407 29.297h2zm-5.634-30.223c-3.892-7.445-10.927-11.097-20.807-11.097v2c9.321 0 15.566 3.388 19.034 10.023l1.773-.926zM349.812 30.08c-9.879 0-16.914 3.652-20.806 11.097l1.773.926c3.468-6.635 9.713-10.023 19.033-10.023v-2zm-20.806 11.097c-3.787 7.244-5.634 17.35-5.634 30.223h2c0-12.727 1.834-22.461 5.407-29.297l-1.773-.926zM323.372 71.4v31.68h2V71.4h-2zm0 31.68c0 12.873 1.847 22.979 5.634 30.223l1.773-.926c-3.573-6.836-5.407-16.57-5.407-29.297h-2zm5.634 30.223c3.892 7.445 10.927 11.097 20.806 11.097v-2c-9.32 0-15.565-3.388-19.033-10.023l-1.773.926zm115.993 17.777l.821-.571-.821.571zm0-127.68l.821.57-.821-.57zm97.44 0l-.822.57.822-.57zm0 127.68l.821.571-.821-.571zm-28.8-18.24l-.886-.463.886.463zm0-91.2l.886-.463-.886.463zm-39.84 0l-.886-.463.886.463zm0 91.2l.886-.463-.886.463zm19.92 40.04c-21.662 0-37.562-7.492-47.899-22.371l-1.643 1.142c10.784 15.521 27.363 23.229 49.542 23.229v-2zm-47.899-22.371c-10.4-14.969-15.661-36.021-15.661-63.269h-2c0 27.472 5.299 48.98 16.018 64.411l1.643-1.142zM430.159 87.24c0-27.248 5.261-48.3 15.661-63.27l-1.643-1.14c-10.719 15.43-16.018 36.939-16.018 64.41h2zm15.661-63.27C456.157 9.093 472.057 1.6 493.719 1.6v-2c-22.179 0-38.758 7.708-49.542 23.23l1.643 1.14zM493.719 1.6c21.661 0 37.562 7.492 47.898 22.37l1.643-1.14C532.477 7.307 515.897-.4 493.719-.4v2zm47.898 22.37c10.401 14.97 15.662 36.022 15.662 63.27h2c0-27.471-5.299-48.98-16.019-64.41l-1.643 1.14zm15.662 63.27c0 27.248-5.261 48.3-15.662 63.269l1.643 1.142c10.72-15.431 16.019-36.939 16.019-64.411h-2zm-15.662 63.269c-10.336 14.879-26.237 22.371-47.898 22.371v2c22.178 0 38.758-7.708 49.541-23.229l-1.643-1.142zm-47.898-6.109c9.879 0 16.914-3.652 20.806-11.097l-1.772-.926c-3.469 6.635-9.713 10.023-19.034 10.023v2zm20.806-11.097c3.787-7.244 5.634-17.35 5.634-30.223h-2c0 12.727-1.833 22.461-5.406 29.297l1.772.926zm5.634-30.223V71.4h-2v31.68h2zm0-31.68c0-12.873-1.847-22.979-5.634-30.223l-1.772.926c3.573 6.836 5.406 16.57 5.406 29.297h2zm-5.634-30.223c-3.892-7.445-10.927-11.097-20.806-11.097v2c9.321 0 15.565 3.388 19.034 10.023l1.772-.926zM493.719 30.08c-9.879 0-16.915 3.652-20.806 11.097l1.772.926c3.468-6.635 9.713-10.023 19.034-10.023v-2zm-20.806 11.097c-3.787 7.244-5.634 17.35-5.634 30.223h2c0-12.727 1.833-22.461 5.406-29.297l-1.772-.926zM467.279 71.4v31.68h2V71.4h-2zm0 31.68c0 12.873 1.847 22.979 5.634 30.223l1.772-.926c-3.573-6.836-5.406-16.57-5.406-29.297h-2zm5.634 30.223c3.891 7.445 10.927 11.097 20.806 11.097v-2c-9.321 0-15.566-3.388-19.034-10.023l-1.772.926z" fill="#B0E3FC" mask="url(#path-1-outside-1_48_1753)"/></g></svg>