<svg width="559" height="177" viewBox="0 0 559 176" fill="none" xmlns="http://www.w3.org/2000/svg">
<g opacity="0.4">
<mask id="path-1-outside-1_48_1753" maskUnits="userSpaceOnUse" x="-2" y="-1" width="562" height="176" fill="black">
<rect fill="white" x="-2" y="-1" width="562" height="176"/>
<path d="M122.24 171H3.68V138.12L55.28 93.96C59.92 89.96 63.84 86.36 67.04 83.16C70.24 79.8 72.8 76.6 74.72 73.56C76.8 70.36 78.24 67.24 79.04 64.2C80 61.16 80.48 57.88 80.48 54.36V51C80.48 47.8 79.84 45 78.56 42.6C77.28 40.2 75.6 38.2 73.52 36.6C71.44 35 69.04 33.8 66.32 33C63.76 32.2 61.12 31.8 58.4 31.8C54.4 31.8 50.88 32.44 47.84 33.72C44.96 35 42.4 36.76 40.16 39C38.08 41.08 36.32 43.56 34.88 46.44C33.44 49.16 32.32 52.12 31.52 55.32L0.0800008 43.32C2 37.56 4.64 32.12 8 27C11.36 21.72 15.52 17.16 20.48 13.32C25.6 9.31999 31.6 6.19999 38.48 3.95999C45.36 1.71999 53.12 0.599991 61.76 0.599991C70.88 0.599991 78.96 1.87999 86 4.44C93.04 6.99999 98.96 10.52 103.76 15C108.72 19.48 112.48 24.84 115.04 31.08C117.6 37.16 118.88 43.8 118.88 51C118.88 58.2 117.68 64.76 115.28 70.68C112.88 76.6 109.6 82.2 105.44 87.48C101.44 92.6 96.72 97.48 91.28 102.12C85.84 106.76 80.16 111.48 74.24 116.28L43.04 140.76H122.24V171ZM205.906 173.88C183.986 173.88 167.746 166.28 157.186 151.08C146.626 135.88 141.346 114.6 141.346 87.24C141.346 59.88 146.626 38.6 157.186 23.4C167.746 8.19999 183.986 0.599991 205.906 0.599991C227.826 0.599991 244.066 8.19999 254.626 23.4C265.186 38.6 270.466 59.88 270.466 87.24C270.466 114.6 265.186 135.88 254.626 151.08C244.066 166.28 227.826 173.88 205.906 173.88ZM205.906 143.4C215.506 143.4 222.146 139.88 225.826 132.84C229.506 125.8 231.346 115.88 231.346 103.08V71.4C231.346 58.6 229.506 48.68 225.826 41.64C222.146 34.6 215.506 31.08 205.906 31.08C196.306 31.08 189.666 34.6 185.986 41.64C182.306 48.68 180.466 58.6 180.466 71.4V103.08C180.466 115.88 182.306 125.8 185.986 132.84C189.666 139.88 196.306 143.4 205.906 143.4ZM349.813 173.88C327.893 173.88 311.653 166.28 301.093 151.08C290.533 135.88 285.253 114.6 285.253 87.24C285.253 59.88 290.533 38.6 301.093 23.4C311.653 8.19999 327.893 0.599991 349.813 0.599991C371.733 0.599991 387.973 8.19999 398.533 23.4C409.093 38.6 414.373 59.88 414.373 87.24C414.373 114.6 409.093 135.88 398.533 151.08C387.973 166.28 371.733 173.88 349.813 173.88ZM349.813 143.4C359.413 143.4 366.053 139.88 369.733 132.84C373.413 125.8 375.253 115.88 375.253 103.08V71.4C375.253 58.6 373.413 48.68 369.733 41.64C366.053 34.6 359.413 31.08 349.813 31.08C340.213 31.08 333.573 34.6 329.893 41.64C326.213 48.68 324.373 58.6 324.373 71.4V103.08C324.373 115.88 326.213 125.8 329.893 132.84C333.573 139.88 340.213 143.4 349.813 143.4ZM493.719 173.88C471.799 173.88 455.559 166.28 444.999 151.08C434.439 135.88 429.159 114.6 429.159 87.24C429.159 59.88 434.439 38.6 444.999 23.4C455.559 8.19999 471.799 0.599991 493.719 0.599991C515.639 0.599991 531.879 8.19999 542.439 23.4C552.999 38.6 558.279 59.88 558.279 87.24C558.279 114.6 552.999 135.88 542.439 151.08C531.879 166.28 515.639 173.88 493.719 173.88ZM493.719 143.4C503.319 143.4 509.959 139.88 513.639 132.84C517.319 125.8 519.159 115.88 519.159 103.08V71.4C519.159 58.6 517.319 48.68 513.639 41.64C509.959 34.6 503.319 31.08 493.719 31.08C484.119 31.08 477.479 34.6 473.799 41.64C470.119 48.68 468.279 58.6 468.279 71.4V103.08C468.279 115.88 470.119 125.8 473.799 132.84C477.479 139.88 484.119 143.4 493.719 143.4Z"/>
</mask>
<path d="M122.24 171V172H123.24V171H122.24ZM3.68 171H2.68V172H3.68V171ZM3.68 138.12L3.02979 137.36L2.68 137.66V138.12H3.68ZM55.28 93.96L55.9302 94.7198L55.9329 94.7174L55.28 93.96ZM67.04 83.16L67.7471 83.8671L67.7557 83.8585L67.7641 83.8496L67.04 83.16ZM74.72 73.56L73.8815 73.015L73.8745 73.026L74.72 73.56ZM79.04 64.2L78.0864 63.8989L78.0791 63.922L78.0729 63.9455L79.04 64.2ZM73.52 36.6L72.9103 37.3926L73.52 36.6ZM66.32 33L66.0217 33.9545L66.0298 33.957L66.0378 33.9594L66.32 33ZM47.84 33.72L47.4519 32.7984L47.4429 32.8022L47.4339 32.8062L47.84 33.72ZM40.16 39L39.4529 38.2929V38.2929L40.16 39ZM34.88 46.44L35.7638 46.9079L35.7692 46.8976L35.7744 46.8872L34.88 46.44ZM31.52 55.32L31.1634 56.2543L32.2167 56.6563L32.4901 55.5625L31.52 55.32ZM0.0800009 43.32L-0.868683 43.0038L-1.17164 43.9126L-0.276587 44.2543L0.0800009 43.32ZM8 27L8.83613 27.5487L8.84366 27.5369L8 27ZM20.48 13.32L21.0922 14.1107L21.0956 14.108L20.48 13.32ZM86 4.44L85.6583 5.37979V5.37979L86 4.44ZM103.76 15L103.078 15.731L103.084 15.7366L103.09 15.7421L103.76 15ZM115.04 31.08L114.115 31.4596L114.118 31.4681L115.04 31.08ZM105.44 87.48L104.655 86.8611L104.652 86.8643L105.44 87.48ZM91.28 102.12L91.929 102.881L91.28 102.12ZM74.24 116.28L74.8573 117.067L74.8636 117.062L74.8698 117.057L74.24 116.28ZM43.04 140.76L42.4227 139.973L40.1455 141.76H43.04V140.76ZM122.24 140.76H123.24V139.76H122.24V140.76ZM122.24 170H3.68V172H122.24V170ZM4.68 171V138.12H2.68V171H4.68ZM4.33021 138.88L55.9302 94.7197L54.6298 93.2002L3.02979 137.36L4.33021 138.88ZM55.9329 94.7174C60.5856 90.7065 64.5248 87.0894 67.7471 83.8671L66.3329 82.4529C63.1552 85.6306 59.2544 89.2135 54.6271 93.2026L55.9329 94.7174ZM67.7641 83.8496C70.9973 80.4549 73.6018 77.2031 75.5655 74.094L73.8745 73.026C71.9982 75.9969 69.4827 79.1451 66.3159 82.4703L67.7641 83.8496ZM75.5584 74.105C77.6845 70.8341 79.1749 67.6169 80.0071 64.4545L78.0729 63.9455C77.3051 66.8631 75.9155 69.8859 73.8816 73.015L75.5584 74.105ZM79.9936 64.5011C80.9874 61.3541 81.48 57.9716 81.48 54.36H79.48C79.48 57.7884 79.0126 60.9659 78.0864 63.8989L79.9936 64.5011ZM81.48 54.36V51H79.48V54.36H81.48ZM81.48 51C81.48 47.6648 80.8122 44.6978 79.4424 42.1294L77.6777 43.0706C78.8678 45.3022 79.48 47.9352 79.48 51H81.48ZM79.4424 42.1294C78.0979 39.6086 76.3266 37.4973 74.1297 35.8074L72.9103 37.3926C74.8734 38.9027 76.4621 40.7914 77.6777 43.0706L79.4424 42.1294ZM74.1297 35.8074C71.9442 34.1262 69.4311 32.8727 66.6022 32.0406L66.0378 33.9594C68.6489 34.7273 70.9359 35.8738 72.9103 37.3926L74.1297 35.8074ZM66.6183 32.0455C63.9604 31.2149 61.2197 30.8 58.4 30.8V32.8C61.0203 32.8 63.5597 33.1851 66.0217 33.9545L66.6183 32.0455ZM58.4 30.8C54.2944 30.8 50.6379 31.4569 47.4519 32.7984L48.2281 34.6416C51.1221 33.4231 54.5056 32.8 58.4 32.8V30.8ZM47.4339 32.8062C44.4411 34.1363 41.7792 35.9666 39.4529 38.2929L40.8671 39.7071C43.0208 37.5534 45.4789 35.8637 48.2461 34.6338L47.4339 32.8062ZM39.4529 38.2929C37.2901 40.4557 35.4691 43.0257 33.9856 45.9928L35.7744 46.8872C37.1709 44.0943 38.87 41.7043 40.8671 39.7071L39.4529 38.2929ZM33.9962 45.9721C32.5158 48.7684 31.368 51.8047 30.5499 55.0775L32.4901 55.5625C33.272 52.4353 34.3642 49.5516 35.7638 46.9079L33.9962 45.9721ZM31.8766 54.3857L0.436589 42.3857L-0.276587 44.2543L31.1634 56.2543L31.8766 54.3857ZM1.02868 43.6362C2.92111 37.959 5.52307 32.597 8.83605 27.5486L7.16395 26.4513C3.75693 31.643 1.07889 37.161 -0.868683 43.0038L1.02868 43.6362ZM8.84366 27.5369C12.1416 22.3544 16.2232 17.8803 21.0922 14.1107L19.8678 12.5293C14.8168 16.4397 10.5784 21.0856 7.15634 26.4631L8.84366 27.5369ZM21.0956 14.108C26.1141 10.1874 32.0078 7.11889 38.7896 4.91086L38.1704 3.00912C31.1922 5.2811 25.0859 8.45261 19.8644 12.532L21.0956 14.108ZM38.7896 4.91086C45.5524 2.70902 53.2053 1.59999 61.76 1.59999V-0.400009C53.0347 -0.400009 45.1676 0.730963 38.1704 3.00912L38.7896 4.91086ZM61.76 1.59999C70.788 1.59999 78.7487 2.86722 85.6583 5.37979L86.3417 3.50021C79.1713 0.892769 70.972 -0.400009 61.76 -0.400009V1.59999ZM85.6583 5.37979C92.5896 7.90026 98.3889 11.3549 103.078 15.731L104.442 14.2689C99.5311 9.68512 93.4904 6.09972 86.3417 3.5002L85.6583 5.37979ZM103.09 15.7421C107.938 20.1209 111.611 25.3566 114.115 31.4596L115.965 30.7004C113.349 24.3234 109.502 18.8391 104.43 14.2579L103.09 15.7421ZM114.118 31.4681C116.622 37.4144 117.88 43.921 117.88 51H119.88C119.88 43.679 118.578 36.9056 115.962 30.6919L114.118 31.4681ZM117.88 51C117.88 58.0875 116.699 64.5179 114.353 70.3043L116.207 71.0557C118.661 65.0021 119.88 58.3125 119.88 51H117.88ZM114.353 70.3043C111.99 76.1325 108.759 81.6512 104.655 86.8611L106.226 88.0989C110.441 82.7487 113.77 77.0675 116.207 71.0557L114.353 70.3043ZM104.652 86.8643C100.697 91.9264 96.025 96.7585 90.6311 101.359L91.929 102.881C97.415 98.2015 102.183 93.2736 106.228 88.0956L104.652 86.8643ZM90.6311 101.359C85.1978 105.993 79.5242 110.708 73.6102 115.503L74.8698 117.057C80.7958 112.252 86.4822 107.527 91.929 102.881L90.6311 101.359ZM73.6227 115.493L42.4227 139.973L43.6573 141.547L74.8573 117.067L73.6227 115.493ZM43.04 141.76H122.24V139.76H43.04V141.76ZM121.24 140.76V171H123.24V140.76H121.24ZM157.186 151.08L158.008 150.509L157.186 151.08ZM157.186 23.4L158.008 23.9706L157.186 23.4ZM254.626 23.4L253.805 23.9706L254.626 23.4ZM254.626 151.08L255.448 151.651L254.626 151.08ZM225.826 132.84L224.94 132.377L225.826 132.84ZM225.826 41.64L226.712 41.1767L225.826 41.64ZM185.986 41.64L185.1 41.1767L185.986 41.64ZM185.986 132.84L186.872 132.377L185.986 132.84ZM205.906 172.88C184.245 172.88 168.344 165.388 158.008 150.509L156.365 151.651C167.148 167.172 183.728 174.88 205.906 174.88V172.88ZM158.008 150.509C147.607 135.54 142.346 114.488 142.346 87.24H140.346C140.346 114.712 145.645 136.22 156.365 151.651L158.008 150.509ZM142.346 87.24C142.346 59.9915 147.607 38.9405 158.008 23.9706L156.365 22.8294C145.645 38.2595 140.346 59.7685 140.346 87.24H142.346ZM158.008 23.9706C168.344 9.09175 184.245 1.59999 205.906 1.59999V-0.400009C183.728 -0.400009 167.148 7.30824 156.365 22.8294L158.008 23.9706ZM205.906 1.59999C227.568 1.59999 243.468 9.09175 253.805 23.9706L255.448 22.8294C244.664 7.30824 228.085 -0.400009 205.906 -0.400009V1.59999ZM253.805 23.9706C264.205 38.9405 269.466 59.9915 269.466 87.24H271.466C271.466 59.7685 266.167 38.2595 255.448 22.8294L253.805 23.9706ZM269.466 87.24C269.466 114.488 264.205 135.54 253.805 150.509L255.448 151.651C266.167 136.22 271.466 114.712 271.466 87.24H269.466ZM253.805 150.509C243.468 165.388 227.568 172.88 205.906 172.88V174.88C228.085 174.88 244.664 167.172 255.448 151.651L253.805 150.509ZM205.906 144.4C215.785 144.4 222.821 140.748 226.712 133.303L224.94 132.377C221.472 139.012 215.227 142.4 205.906 142.4V144.4ZM226.712 133.303C230.499 126.059 232.346 115.953 232.346 103.08H230.346C230.346 115.807 228.513 125.541 224.94 132.377L226.712 133.303ZM232.346 103.08V71.4H230.346V103.08H232.346ZM232.346 71.4C232.346 58.5267 230.499 48.4214 226.712 41.1767L224.94 42.1032C228.513 48.9386 230.346 58.6733 230.346 71.4H232.346ZM226.712 41.1767C222.821 33.7317 215.785 30.08 205.906 30.08V32.08C215.227 32.08 221.472 35.4683 224.94 42.1032L226.712 41.1767ZM205.906 30.08C196.027 30.08 188.992 33.7317 185.1 41.1767L186.872 42.1032C190.341 35.4683 196.585 32.08 205.906 32.08V30.08ZM185.1 41.1767C181.313 48.4214 179.466 58.5267 179.466 71.4H181.466C181.466 58.6733 183.299 48.9386 186.872 42.1032L185.1 41.1767ZM179.466 71.4V103.08H181.466V71.4H179.466ZM179.466 103.08C179.466 115.953 181.313 126.059 185.1 133.303L186.872 132.377C183.299 125.541 181.466 115.807 181.466 103.08H179.466ZM185.1 133.303C188.992 140.748 196.027 144.4 205.906 144.4V142.4C196.585 142.4 190.341 139.012 186.872 132.377L185.1 133.303ZM301.092 151.08L301.914 150.509L301.092 151.08ZM301.092 23.4L301.914 23.9706L301.092 23.4ZM398.533 23.4L397.711 23.9706L398.533 23.4ZM398.533 151.08L399.354 151.651L398.533 151.08ZM369.733 132.84L368.846 132.377L369.733 132.84ZM369.733 41.64L370.619 41.1767L369.733 41.64ZM329.893 41.64L329.006 41.1767L329.893 41.64ZM329.893 132.84L330.779 132.377L329.893 132.84ZM349.812 172.88C328.151 172.88 312.251 165.388 301.914 150.509L300.271 151.651C311.054 167.172 327.634 174.88 349.812 174.88V172.88ZM301.914 150.509C291.514 135.54 286.253 114.488 286.253 87.24H284.253C284.253 114.712 289.551 136.22 300.271 151.651L301.914 150.509ZM286.253 87.24C286.253 59.9915 291.514 38.9405 301.914 23.9706L300.271 22.8294C289.551 38.2595 284.253 59.7685 284.253 87.24H286.253ZM301.914 23.9706C312.251 9.09175 328.151 1.59999 349.812 1.59999V-0.400009C327.634 -0.400009 311.054 7.30824 300.271 22.8294L301.914 23.9706ZM349.812 1.59999C371.474 1.59999 387.374 9.09175 397.711 23.9706L399.354 22.8294C388.571 7.30824 371.991 -0.400009 349.812 -0.400009V1.59999ZM397.711 23.9706C408.111 38.9405 413.372 59.9915 413.372 87.24H415.372C415.372 59.7685 410.074 38.2595 399.354 22.8294L397.711 23.9706ZM413.372 87.24C413.372 114.488 408.111 135.54 397.711 150.509L399.354 151.651C410.074 136.22 415.372 114.712 415.372 87.24H413.372ZM397.711 150.509C387.374 165.388 371.474 172.88 349.812 172.88V174.88C371.991 174.88 388.571 167.172 399.354 151.651L397.711 150.509ZM349.812 144.4C359.692 144.4 366.727 140.748 370.619 133.303L368.846 132.377C365.378 139.012 359.133 142.4 349.812 142.4V144.4ZM370.619 133.303C374.406 126.059 376.253 115.953 376.253 103.08H374.253C374.253 115.807 372.419 125.541 368.846 132.377L370.619 133.303ZM376.253 103.08V71.4H374.253V103.08H376.253ZM376.253 71.4C376.253 58.5267 374.406 48.4214 370.619 41.1767L368.846 42.1032C372.419 48.9386 374.253 58.6733 374.253 71.4H376.253ZM370.619 41.1767C366.727 33.7317 359.692 30.08 349.812 30.08V32.08C359.133 32.08 365.378 35.4683 368.846 42.1032L370.619 41.1767ZM349.812 30.08C339.933 30.08 332.898 33.7317 329.006 41.1767L330.779 42.1032C334.247 35.4683 340.492 32.08 349.812 32.08V30.08ZM329.006 41.1767C325.219 48.4214 323.372 58.5267 323.372 71.4H325.372C325.372 58.6733 327.206 48.9386 330.779 42.1032L329.006 41.1767ZM323.372 71.4V103.08H325.372V71.4H323.372ZM323.372 103.08C323.372 115.953 325.219 126.059 329.006 133.303L330.779 132.377C327.206 125.541 325.372 115.807 325.372 103.08H323.372ZM329.006 133.303C332.898 140.748 339.933 144.4 349.812 144.4V142.4C340.492 142.4 334.247 139.012 330.779 132.377L329.006 133.303ZM444.999 151.08L445.82 150.509L444.999 151.08ZM444.999 23.4L445.82 23.9706L444.999 23.4ZM542.439 23.4L541.617 23.9706L542.439 23.4ZM542.439 151.08L543.26 151.651L542.439 151.08ZM513.639 132.84L512.753 132.377L513.639 132.84ZM513.639 41.64L514.525 41.1767L513.639 41.64ZM473.799 41.64L472.913 41.1767L473.799 41.64ZM473.799 132.84L474.685 132.377L473.799 132.84ZM493.719 172.88C472.057 172.88 456.157 165.388 445.82 150.509L444.177 151.651C454.961 167.172 471.54 174.88 493.719 174.88V172.88ZM445.82 150.509C435.42 135.54 430.159 114.488 430.159 87.24H428.159C428.159 114.712 433.458 136.22 444.177 151.651L445.82 150.509ZM430.159 87.24C430.159 59.9915 435.42 38.9405 445.82 23.9706L444.177 22.8294C433.458 38.2595 428.159 59.7685 428.159 87.24H430.159ZM445.82 23.9706C456.157 9.09175 472.057 1.59999 493.719 1.59999V-0.400009C471.54 -0.400009 454.961 7.30824 444.177 22.8294L445.82 23.9706ZM493.719 1.59999C515.38 1.59999 531.281 9.09175 541.617 23.9706L543.26 22.8294C532.477 7.30824 515.897 -0.400009 493.719 -0.400009V1.59999ZM541.617 23.9706C552.018 38.9405 557.279 59.9915 557.279 87.24H559.279C559.279 59.7685 553.98 38.2595 543.26 22.8294L541.617 23.9706ZM557.279 87.24C557.279 114.488 552.018 135.54 541.617 150.509L543.26 151.651C553.98 136.22 559.279 114.712 559.279 87.24H557.279ZM541.617 150.509C531.281 165.388 515.38 172.88 493.719 172.88V174.88C515.897 174.88 532.477 167.172 543.26 151.651L541.617 150.509ZM493.719 144.4C503.598 144.4 510.633 140.748 514.525 133.303L512.753 132.377C509.284 139.012 503.04 142.4 493.719 142.4V144.4ZM514.525 133.303C518.312 126.059 520.159 115.953 520.159 103.08H518.159C518.159 115.807 516.326 125.541 512.753 132.377L514.525 133.303ZM520.159 103.08V71.4H518.159V103.08H520.159ZM520.159 71.4C520.159 58.5267 518.312 48.4214 514.525 41.1767L512.753 42.1032C516.326 48.9386 518.159 58.6733 518.159 71.4H520.159ZM514.525 41.1767C510.633 33.7317 503.598 30.08 493.719 30.08V32.08C503.04 32.08 509.284 35.4683 512.753 42.1032L514.525 41.1767ZM493.719 30.08C483.84 30.08 476.804 33.7317 472.913 41.1767L474.685 42.1032C478.153 35.4683 484.398 32.08 493.719 32.08V30.08ZM472.913 41.1767C469.126 48.4214 467.279 58.5267 467.279 71.4H469.279C469.279 58.6733 471.112 48.9386 474.685 42.1032L472.913 41.1767ZM467.279 71.4V103.08H469.279V71.4H467.279ZM467.279 103.08C467.279 115.953 469.126 126.059 472.913 133.303L474.685 132.377C471.112 125.541 469.279 115.807 469.279 103.08H467.279ZM472.913 133.303C476.804 140.748 483.84 144.4 493.719 144.4V142.4C484.398 142.4 478.153 139.012 474.685 132.377L472.913 133.303Z" fill="#B0E3FC" mask="url(#path-1-outside-1_48_1753)"/>
</g>
</svg>
